<svg width="1818" height="66" viewBox="0 0 1818 66" fill="none" xmlns="http://www.w3.org/2000/svg">
<path d="M266.524 2.10347V13.0635H248.006V64H234.988V13.0635H216.386V2.10347H266.524ZM282.565 2.10347L290.754 37.5449L292.518 47.4131L294.323 37.7549L301.294 2.10347H314.941L322.29 37.5449L324.18 47.4131L326.069 37.9229L334.342 2.10347H347.485L330.059 64H317.713L310.238 27.8027L308.055 15.835L305.871 27.8027L298.396 64H286.387L268.834 2.10347H282.565ZM401.109 13.0635H368.355V26.207H398.422V36.957H368.355V52.8721H402.621V64H355.716V2.10347H401.109V13.0635ZM412.489 2.10347H426.053L450.702 45.3135V2.10347H462.754V64H449.82L424.541 20.0342V64H412.489V2.10347ZM519.821 2.10347V13.0635H501.303V64H488.285V13.0635H469.683V2.10347H519.821ZM562.737 2.10347H577.393L556.69 40.7363V64H543.757V40.7363L522.341 2.10347H537.584L550.434 29.0625L562.737 2.10347ZM652.181 2.10347V13.0635H633.662V64H620.645V13.0635H602.042V2.10347H652.181ZM668.222 2.10347L676.41 37.5449L678.174 47.4131L679.979 37.7549L686.95 2.10347H700.598L707.946 37.5449L709.836 47.4131L711.726 37.9229L719.998 2.10347H733.142L715.715 64H703.369L695.895 27.8027L693.711 15.835L691.527 27.8027L684.053 64H672.043L654.49 2.10347H668.222ZM768.373 54.7617C773.496 54.7617 777.555 52.8721 780.551 49.0928C783.574 45.3135 785.086 39.9385 785.086 32.9678C785.086 26.0251 783.574 20.6641 780.551 16.8848C777.555 13.0775 773.496 11.1738 768.373 11.1738C763.25 11.1738 759.163 13.0635 756.111 16.8428C753.06 20.6221 751.534 25.9971 751.534 32.9678C751.534 39.9385 753.06 45.3135 756.111 49.0928C759.163 52.8721 763.25 54.7617 768.373 54.7617ZM798.02 32.9678C798.02 44.0817 794.898 52.5921 788.655 58.499C783.98 63.3141 777.219 65.7217 768.373 65.7217C759.527 65.7217 752.766 63.3141 748.091 58.499C741.82 52.5921 738.685 44.0817 738.685 32.9678C738.685 21.6299 741.82 13.1195 748.091 7.43647C752.766 2.62137 759.527 0.213867 768.373 0.213867C777.219 0.213867 783.98 2.62137 788.655 7.43647C794.898 13.1195 798.02 21.6299 798.02 32.9678ZM817.294 44.8936C817.686 47.721 818.456 49.8346 819.604 51.2344C821.703 53.7819 825.3 55.0557 830.396 55.0557C833.447 55.0557 835.924 54.7197 837.828 54.0479C841.439 52.7601 843.245 50.3665 843.245 46.8672C843.245 44.8236 842.349 43.2419 840.558 42.1221C838.766 41.0303 835.952 40.0645 832.117 39.2246L825.566 37.7549C819.128 36.2992 814.676 34.7174 812.213 33.0098C808.042 30.1543 805.956 25.6891 805.956 19.6143C805.956 14.0713 807.972 9.46607 812.003 5.79877C816.034 2.13147 821.955 0.297868 829.766 0.297868C836.288 0.297868 841.845 2.03347 846.437 5.50487C851.056 8.94817 853.477 13.9593 853.701 20.5381H841.271C841.048 16.8148 839.424 14.1693 836.4 12.6016C834.385 11.5658 831.879 11.0479 828.884 11.0479C825.552 11.0479 822.893 11.7197 820.905 13.0635C818.918 14.4072 817.924 16.2829 817.924 18.6904C817.924 20.902 818.904 22.5537 820.863 23.6455C822.123 24.3734 824.811 25.2272 828.926 26.207L839.592 28.7686C844.267 29.8883 847.794 31.3861 850.174 33.2617C853.869 36.1732 855.717 40.3864 855.717 45.9014C855.717 51.5563 853.547 56.2594 849.208 60.0107C844.897 63.734 838.794 65.5957 830.899 65.5957C822.837 65.5957 816.496 63.762 811.877 60.0947C807.258 56.3994 804.948 51.3324 804.948 44.8936H817.294ZM916.186 38.7207L906.821 11.4678L896.869 38.7207H916.186ZM902.454 2.31347H911.902L934.284 64H925.13L918.873 45.5234H894.476L887.799 64H879.232L902.454 2.31347ZM970.565 30.5742C974.485 30.5742 977.578 29.7904 979.846 28.2227C982.141 26.6549 983.289 23.8275 983.289 19.7402C983.289 15.3451 981.693 12.3496 978.502 10.7539C976.794 9.91407 974.513 9.49407 971.657 9.49407H951.249V30.5742H970.565ZM942.893 2.31347H971.447C976.15 2.31347 980.028 2.99927 983.079 4.37107C988.874 7.00257 991.771 11.8597 991.771 18.9424C991.771 22.6377 991.002 25.6611 989.462 28.0127C987.95 30.3643 985.823 32.2539 983.079 33.6816C985.487 34.6615 987.292 35.9492 988.496 37.5449C989.728 39.1406 990.414 41.7301 990.554 45.3135L990.848 53.5859C990.932 55.9375 991.128 57.6872 991.436 58.835C991.939 60.7946 992.835 62.0544 994.12 62.6143V64H983.877C983.597 63.4681 983.373 62.7822 983.205 61.9424C983.037 61.1025 982.897 59.4788 982.785 57.0713L982.281 46.7832C982.085 42.752 980.588 40.0505 977.788 38.6787C976.192 37.9229 973.687 37.5449 970.271 37.5449H951.249V64H942.893V2.31347ZM1047.41 2.31347V9.66207H1026.62V64H1018.14V9.66207H997.36V2.31347H1047.41ZM1073.11 26.291C1075.77 24.4154 1077.6 22.8896 1078.61 21.7139C1080.26 19.8102 1081.09 17.6966 1081.09 15.373C1081.09 13.5534 1080.49 11.9857 1079.28 10.6699C1078.08 9.35417 1076.46 8.69627 1074.41 8.69627C1071.3 8.69627 1069.15 9.73207 1067.95 11.8037C1067.33 12.8675 1067.02 14.0293 1067.02 15.2891C1067.02 16.9967 1067.48 18.6344 1068.41 20.2021C1069.36 21.7699 1070.93 23.7995 1073.11 26.291ZM1071.18 58.793C1074.29 58.793 1076.96 58.0791 1079.2 56.6514C1081.44 55.2236 1083.16 53.6279 1084.36 51.8643L1070.42 34.8574C1066.48 37.4889 1063.9 39.5046 1062.7 40.9043C1060.85 43.0039 1059.92 45.5654 1059.92 48.5889C1059.92 51.8643 1061.11 54.3838 1063.49 56.1475C1065.9 57.9111 1068.46 58.793 1071.18 58.793ZM1066.22 29.6924C1063.62 26.6969 1061.87 24.1774 1060.97 22.1338C1060.11 20.0902 1059.67 18.1165 1059.67 16.2129C1059.67 12.2376 1061.02 8.94817 1063.7 6.34467C1066.39 3.71317 1069.99 2.39747 1074.5 2.39747C1078.78 2.39747 1082.12 3.61517 1084.53 6.05077C1086.94 8.48627 1088.14 11.3978 1088.14 14.7852C1088.14 18.7324 1086.9 22.1898 1084.41 25.1572C1082.95 26.8929 1080.51 28.8945 1077.1 31.1621L1088.35 44.5996C1089.11 42.36 1089.63 40.6943 1089.91 39.6025C1090.22 38.4827 1090.52 36.929 1090.83 34.9414H1098.01C1097.54 38.8887 1096.58 42.682 1095.16 46.3213C1093.73 49.9326 1093.01 51.3883 1093.01 50.6885L1103.97 64H1094.23L1088.44 56.9453C1086.14 59.4368 1084.04 61.2565 1082.14 62.4043C1078.81 64.4199 1074.97 65.4277 1070.63 65.4277C1064.22 65.4277 1059.56 63.7061 1056.65 60.2627C1053.74 56.7913 1052.28 52.8861 1052.28 48.5469C1052.28 43.8717 1053.7 39.9665 1056.52 36.8311C1058.26 34.9274 1061.49 32.5479 1066.22 29.6924ZM1136.14 56.8613C1138.97 56.8613 1141.29 56.5674 1143.11 55.9795C1146.36 54.8877 1149.02 52.7881 1151.09 49.6807C1152.74 47.1891 1153.93 43.9977 1154.66 40.1064C1155.08 37.7829 1155.29 35.6273 1155.29 33.6396C1155.29 25.9971 1153.76 20.0622 1150.71 15.835C1147.69 11.6077 1142.8 9.49407 1136.06 9.49407H1121.23V56.8613H1136.14ZM1112.83 2.31347H1137.82C1146.3 2.31347 1152.88 5.32287 1157.56 11.3418C1161.73 16.7728 1163.81 23.7295 1163.81 32.2119C1163.81 38.7627 1162.58 44.6836 1160.12 49.9746C1155.78 59.3249 1148.32 64 1137.74 64H1112.83V2.31347ZM1175.4 2.31347H1220.38V9.87207H1183.55V28.6006H1217.61V35.7393H1183.55V56.6514H1221.01V64H1175.4V2.31347ZM1237.43 44.0957C1237.62 47.5951 1238.45 50.4365 1239.9 52.6201C1242.67 56.7074 1247.56 58.751 1254.56 58.751C1257.69 58.751 1260.55 58.3031 1263.12 57.4072C1268.11 55.6715 1270.6 52.5641 1270.6 48.085C1270.6 44.7256 1269.55 42.332 1267.45 40.9043C1265.32 39.5046 1261.99 38.2868 1257.46 37.251L1249.1 35.3613C1243.64 34.1296 1239.78 32.7718 1237.51 31.2881C1233.59 28.7126 1231.63 24.8633 1231.63 19.7402C1231.63 14.1973 1233.55 9.64807 1237.38 6.09277C1241.22 2.53737 1246.65 0.759768 1253.68 0.759768C1260.14 0.759768 1265.63 2.32747 1270.14 5.46287C1274.67 8.57027 1276.94 13.5534 1276.94 20.4121H1269.09C1268.67 17.1087 1267.77 14.5752 1266.4 12.8115C1263.85 9.59207 1259.53 7.98237 1253.42 7.98237C1248.5 7.98237 1244.96 9.01817 1242.8 11.0898C1240.65 13.1615 1239.57 15.569 1239.57 18.3125C1239.57 21.3359 1240.83 23.5475 1243.35 24.9473C1245 25.8431 1248.74 26.9629 1254.56 28.3066L1263.21 30.2803C1267.38 31.2321 1270.6 32.5339 1272.87 34.1855C1276.79 37.069 1278.75 41.2542 1278.75 46.7412C1278.75 53.5719 1276.25 58.457 1271.27 61.3965C1266.32 64.3359 1260.55 65.8057 1253.97 65.8057C1246.3 65.8057 1240.3 63.846 1235.96 59.9268C1231.62 56.0355 1229.49 50.7585 1229.57 44.0957H1237.43ZM1291.22 2.31347H1299.66V64H1291.22V2.31347ZM1339.93 0.717768C1345.72 0.717768 1350.73 1.83757 1354.96 4.07707C1361.09 7.29647 1364.84 12.9375 1366.22 21H1357.94C1356.94 16.4928 1354.85 13.2174 1351.69 11.1738C1348.52 9.10217 1344.53 8.06637 1339.72 8.06637C1334.01 8.06637 1329.19 10.208 1325.27 14.4912C1321.38 18.7744 1319.44 25.1572 1319.44 33.6396C1319.44 40.9743 1321.05 46.9512 1324.27 51.5703C1327.49 56.1615 1332.73 58.457 1340.01 58.457C1345.58 58.457 1350.19 56.8473 1353.83 53.6279C1357.5 50.3805 1359.37 45.1455 1359.46 37.9229H1340.14V30.9941H1367.22V64H1361.85L1359.83 56.0635C1357.01 59.1709 1354.5 61.3265 1352.32 62.5303C1348.65 64.6019 1343.99 65.6377 1338.33 65.6377C1331.03 65.6377 1324.74 63.2721 1319.48 58.541C1313.74 52.6061 1310.87 44.4596 1310.87 34.1016C1310.87 23.7715 1313.67 15.555 1319.27 9.45207C1324.59 3.62917 1331.47 0.717768 1339.93 0.717768ZM1380.2 2.31347H1390.07L1421.23 52.2842V2.31347H1429.16V64H1419.8L1388.18 14.0713V64H1380.2V2.31347ZM1493.24 38.7207L1483.88 11.4678L1473.93 38.7207H1493.24ZM1479.51 2.31347H1488.96L1511.34 64H1502.19L1495.93 45.5234H1471.53L1464.86 64H1456.29L1479.51 2.31347ZM1545.61 0.717768C1551.4 0.717768 1556.41 1.83757 1560.64 4.07707C1566.77 7.29647 1570.52 12.9375 1571.89 21H1563.62C1562.61 16.4928 1560.53 13.2174 1557.36 11.1738C1554.2 9.10217 1550.21 8.06637 1545.4 8.06637C1539.69 8.06637 1534.87 10.208 1530.95 14.4912C1527.06 18.7744 1525.11 25.1572 1525.11 33.6396C1525.11 40.9743 1526.72 46.9512 1529.94 51.5703C1533.16 56.1615 1538.41 58.457 1545.69 58.457C1551.26 58.457 1555.87 56.8473 1559.51 53.6279C1563.17 50.3805 1565.05 45.1455 1565.13 37.9229H1545.82V30.9941H1572.9V64H1567.53L1565.51 56.0635C1562.68 59.1709 1560.18 61.3265 1557.99 62.5303C1554.33 64.6019 1549.67 65.6377 1544.01 65.6377C1536.7 65.6377 1530.42 63.2721 1525.16 58.541C1519.42 52.6061 1516.55 44.4596 1516.55 34.1016C1516.55 23.7715 1519.35 15.555 1524.95 9.45207C1530.27 3.62917 1537.15 0.717768 1545.61 0.717768ZM1586.67 2.31347H1631.65V9.87207H1594.82V28.6006H1628.88V35.7393H1594.82V56.6514H1632.28V64H1586.67V2.31347ZM1643.24 2.31347H1653.11L1684.26 52.2842V2.31347H1692.2V64H1682.84L1651.22 14.0713V64H1643.24V2.31347ZM1731.38 0.633767C1739.19 0.633767 1745.25 2.69137 1749.56 6.80657C1753.87 10.9219 1756.27 15.597 1756.74 20.832H1748.6C1747.67 16.8568 1745.83 13.7074 1743.05 11.3838C1740.31 9.06017 1736.45 7.89837 1731.46 7.89837C1725.39 7.89837 1720.48 10.04 1716.72 14.3232C1713 18.5785 1711.14 25.1152 1711.14 33.9336C1711.14 41.1562 1712.82 47.0212 1716.18 51.5283C1719.57 56.0075 1724.61 58.2471 1731.3 58.2471C1737.45 58.2471 1742.14 55.8815 1745.36 51.1504C1747.07 48.6589 1748.34 45.3835 1749.18 41.3242H1757.33C1756.6 47.819 1754.2 53.264 1750.11 57.6592C1745.21 62.9502 1738.6 65.5957 1730.29 65.5957C1723.12 65.5957 1717.1 63.4261 1712.23 59.0869C1705.82 53.348 1702.62 44.4876 1702.62 32.5059C1702.62 23.4076 1705.02 15.9469 1709.84 10.124C1715.04 3.79717 1722.23 0.633767 1731.38 0.633767ZM1762.75 2.31347H1772.49L1790.21 31.96L1807.93 2.31347H1817.72L1794.41 39.1406V64H1786.05V39.1406L1762.75 2.31347Z" fill="white"/>
<path d="M94.1815 53.5798H12.1024C12.1024 49.0593 15.3608 45.332 19.5501 44.5389C19.7828 44.4596 20.0931 44.4596 20.4034 44.3803C24.2048 43.9838 26.2995 44.1424 31.9628 41.2874C38.0916 37.4807 42.2032 30.6603 42.2032 22.809C42.2032 10.9131 32.7386 1.23779 21.1016 1.23779C9.46471 1.23779 0 10.9131 0 22.809H12.18C12.18 17.7334 16.2141 13.6095 21.1792 13.6095C26.1443 13.6095 30.1784 17.7334 30.1784 22.809C30.1784 25.7434 28.782 28.2812 26.6873 29.8673C26.6873 29.8673 26.6098 29.9466 26.4546 30.0259C26.2219 30.1845 25.9892 30.3431 25.7564 30.4224C25.6788 30.5017 25.6012 30.5017 25.4461 30.581C24.4375 31.1362 22.9635 31.7706 21.4119 32.0878C19.3949 32.4844 15.9814 32.7223 12.4903 34.2291C5.12023 37.7186 0.0775795 44.6975 0 53.4212V64.9999H94.2591V53.5798H94.1815Z" fill="white"/>
<path d="M73.5454 44.6184C85.1823 44.6184 94.647 34.9431 94.647 23.0472C94.647 11.1513 85.1823 1.47595 73.5454 1.47595C61.9084 1.47595 52.4437 11.1513 52.4437 23.0472C52.4437 34.9431 61.9084 44.6184 73.5454 44.6184ZM73.5454 13.927C78.5105 13.927 82.5446 18.0509 82.5446 23.1265C82.5446 28.2021 78.5105 32.2467 73.5454 32.326C68.5803 32.326 64.5462 28.2021 64.5462 23.1265C64.6237 17.9716 68.6579 13.927 73.5454 13.927Z" fill="white"/>
<path d="M158.417 53.4213C158.417 59.6865 163.382 64.8414 169.511 64.8414V53.4213H158.417C158.417 53.342 158.417 53.342 158.417 53.4213Z" fill="white"/>
<path d="M187.432 34.1498C184.019 32.643 180.605 32.405 178.51 32.0085C176.959 31.6913 175.485 31.0568 174.476 30.5017C174.399 30.4224 174.321 30.4224 174.166 30.3431C173.933 30.1845 173.7 30.1051 173.468 29.9465C173.313 29.8672 173.235 29.7879 173.235 29.7879C171.063 28.1225 169.744 25.664 169.744 22.7297C169.744 17.6541 173.778 13.6095 178.743 13.5302C183.708 13.5302 187.742 17.6541 187.742 22.7297H199.922C199.922 10.8338 190.458 1.15845 178.821 1.15845C167.184 1.15845 157.719 10.8338 157.719 22.7297C157.719 30.581 161.831 37.4806 167.96 41.208C173.623 44.063 175.718 43.9044 179.519 44.3009C179.829 44.3009 180.062 44.3803 180.372 44.4596C184.639 45.1733 187.82 48.98 187.82 53.5004H200C199.922 44.6182 194.802 37.6392 187.432 34.1498Z" fill="white"/>
<path d="M124.748 44.3011C124.981 44.2218 125.291 44.2218 125.601 44.1425C129.403 43.746 131.497 43.9046 137.161 41.0496C143.289 37.2429 147.401 30.4226 147.401 22.5713C147.401 10.6753 137.936 1 126.3 1C114.663 1 105.198 10.6753 105.198 22.5713H117.378C117.378 17.4957 121.412 13.3718 126.377 13.3718C131.342 13.3718 135.376 17.4957 135.376 22.5713C135.376 25.5056 133.98 28.0434 131.885 29.6295C131.885 29.6295 131.808 29.7088 131.653 29.7881C131.42 29.9467 131.187 30.1053 130.954 30.1846C130.877 30.264 130.799 30.3432 130.644 30.3432C129.635 30.8984 128.161 31.5329 126.61 31.8501C124.593 32.2466 121.179 32.4845 117.688 33.9913C110.318 37.4808 105.275 44.4597 105.198 53.1834V64.6035H147.556V53.1834H117.378C117.3 48.8216 120.481 45.0942 124.748 44.3011Z" fill="white"/>
</svg>
