<svg width="861" height="86" viewBox="0 0 861 86" fill="none" xmlns="http://www.w3.org/2000/svg">
<path d="M94.1815 67.5798H12.1024C12.1024 63.0593 15.3608 59.332 19.5501 58.5389C19.7828 58.4596 20.0931 58.4596 20.4034 58.3803C24.2048 57.9838 26.2995 58.1424 31.9628 55.2874C38.0916 51.4807 42.2032 44.6603 42.2032 36.809C42.2032 24.9131 32.7386 15.2378 21.1016 15.2378C9.46471 15.2378 0 24.9131 0 36.809H12.18C12.18 31.7334 16.2141 27.6095 21.1792 27.6095C26.1443 27.6095 30.1784 31.7334 30.1784 36.809C30.1784 39.7434 28.782 42.2812 26.6873 43.8673C26.6873 43.8673 26.6098 43.9466 26.4546 44.0259C26.2219 44.1845 25.9892 44.3431 25.7564 44.4224C25.6788 44.5017 25.6012 44.5017 25.4461 44.581C24.4375 45.1362 22.9635 45.7706 21.4119 46.0878C19.3949 46.4844 15.9814 46.7223 12.4903 48.2291C5.12023 51.7186 0.0775795 58.6975 0 67.4212V78.9999H94.2591V67.5798H94.1815Z" fill="white"/>
<path d="M73.5454 58.6184C85.1823 58.6184 94.647 48.9431 94.647 37.0472C94.647 25.1513 85.1823 15.476 73.5454 15.476C61.9084 15.476 52.4437 25.1513 52.4437 37.0472C52.4437 48.9431 61.9084 58.6184 73.5454 58.6184ZM73.5454 27.927C78.5105 27.927 82.5446 32.0509 82.5446 37.1265C82.5446 42.2021 78.5105 46.2467 73.5454 46.326C68.5803 46.326 64.5462 42.2021 64.5462 37.1265C64.6237 31.9716 68.6579 27.927 73.5454 27.927Z" fill="white"/>
<path d="M158.417 67.4213C158.417 73.6865 163.382 78.8414 169.511 78.8414V67.4213H158.417C158.417 67.342 158.417 67.342 158.417 67.4213Z" fill="white"/>
<path d="M187.432 48.1498C184.019 46.643 180.605 46.405 178.51 46.0085C176.959 45.6913 175.485 45.0568 174.476 44.5017C174.399 44.4224 174.321 44.4224 174.166 44.3431C173.933 44.1845 173.7 44.1051 173.468 43.9465C173.313 43.8672 173.235 43.7879 173.235 43.7879C171.063 42.1225 169.744 39.664 169.744 36.7297C169.744 31.6541 173.778 27.6095 178.743 27.5302C183.708 27.5302 187.742 31.6541 187.742 36.7297H199.922C199.922 24.8338 190.458 15.1584 178.821 15.1584C167.184 15.1584 157.719 24.8338 157.719 36.7297C157.719 44.581 161.831 51.4806 167.96 55.208C173.623 58.063 175.718 57.9044 179.519 58.3009C179.829 58.3009 180.062 58.3803 180.372 58.4596C184.639 59.1733 187.82 62.98 187.82 67.5004H200C199.922 58.6182 194.802 51.6392 187.432 48.1498Z" fill="white"/>
<path d="M124.748 58.3011C124.981 58.2218 125.291 58.2218 125.601 58.1425C129.403 57.746 131.497 57.9046 137.161 55.0496C143.289 51.2429 147.401 44.4226 147.401 36.5713C147.401 24.6753 137.936 15 126.3 15C114.663 15 105.198 24.6753 105.198 36.5713H117.378C117.378 31.4957 121.412 27.3718 126.377 27.3718C131.342 27.3718 135.376 31.4957 135.376 36.5713C135.376 39.5056 133.98 42.0434 131.885 43.6295C131.885 43.6295 131.808 43.7088 131.653 43.7881C131.42 43.9467 131.187 44.1053 130.954 44.1846C130.877 44.264 130.799 44.3432 130.644 44.3432C129.635 44.8984 128.161 45.5329 126.61 45.8501C124.593 46.2466 121.179 46.4845 117.688 47.9913C110.318 51.4808 105.275 58.4597 105.198 67.1834V78.6035H147.556V67.1834H117.378C117.3 62.8216 120.481 59.0942 124.748 58.3011Z" fill="white"/>
<path d="M272.925 16.8232V27.6558H254.622V78H241.756V27.6558H223.37V16.8232H272.925ZM288.78 16.8232L296.873 51.8525L298.616 61.606L300.401 52.0601L307.291 16.8232H320.779L328.042 51.8525L329.91 61.606L331.778 52.2261L339.954 16.8232H352.945L335.721 78H323.519L316.131 42.2236L313.973 30.395L311.814 42.2236L304.427 78H292.557L275.208 16.8232H288.78ZM405.945 27.6558H373.572V40.6465H403.289V51.2715H373.572V67.0015H407.439V78H361.08V16.8232H405.945V27.6558ZM417.193 16.8232H430.599L454.961 59.5308V16.8232H466.873V78H454.09L429.104 34.5454V78H417.193V16.8232ZM523.277 16.8232V27.6558H504.974V78H492.107V27.6558H473.721V16.8232H523.277ZM565.694 16.8232H580.179L559.717 55.0068V78H546.934V55.0068L525.767 16.8232H540.833L553.533 43.4688L565.694 16.8232ZM654.097 16.8232V27.6558H635.794V78H622.928V27.6558H604.542V16.8232H654.097ZM669.952 16.8232L678.045 51.8525L679.788 61.606L681.573 52.0601L688.462 16.8232H701.951L709.214 51.8525L711.082 61.606L712.95 52.2261L721.126 16.8232H734.117L716.893 78H704.69L697.303 42.2236L695.145 30.395L692.986 42.2236L685.599 78H673.729L656.38 16.8232H669.952ZM768.938 68.8691C774.002 68.8691 778.014 67.0015 780.975 63.2661C783.963 59.5308 785.457 54.2183 785.457 47.3286C785.457 40.4666 783.963 35.168 780.975 31.4326C778.014 27.6696 774.002 25.7881 768.938 25.7881C763.875 25.7881 759.835 27.6558 756.819 31.3911C753.803 35.1265 752.295 40.439 752.295 47.3286C752.295 54.2183 753.803 59.5308 756.819 63.2661C759.835 67.0015 763.875 68.8691 768.938 68.8691ZM798.24 47.3286C798.24 58.3133 795.155 66.7248 788.985 72.563C784.364 77.3221 777.682 79.7017 768.938 79.7017C760.195 79.7017 753.513 77.3221 748.892 72.563C742.694 66.7248 739.595 58.3133 739.595 47.3286C739.595 36.1226 742.694 27.7111 748.892 22.0942C753.513 17.3351 760.195 14.9556 768.938 14.9556C777.682 14.9556 784.364 17.3351 788.985 22.0942C795.155 27.7111 798.24 36.1226 798.24 47.3286ZM817.291 59.1157C817.678 61.9103 818.439 63.9993 819.573 65.3828C821.648 67.9007 825.204 69.1597 830.24 69.1597C833.256 69.1597 835.704 68.8276 837.586 68.1636C841.155 66.8908 842.94 64.5251 842.94 61.0664C842.94 59.0465 842.055 57.4832 840.284 56.3765C838.513 55.2974 835.732 54.3428 831.941 53.5127L825.467 52.0601C819.103 50.6213 814.703 49.0579 812.269 47.3701C808.146 44.5479 806.084 40.1346 806.084 34.1304C806.084 28.6519 808.077 24.1003 812.061 20.4756C816.045 16.8509 821.897 15.0386 829.617 15.0386C836.064 15.0386 841.556 16.7541 846.094 20.1851C850.66 23.5884 853.053 28.5412 853.274 35.0435H840.989C840.768 31.3634 839.163 28.7487 836.175 27.1992C834.183 26.1755 831.706 25.6636 828.746 25.6636C825.453 25.6636 822.824 26.3276 820.86 27.6558C818.895 28.9839 817.913 30.8377 817.913 33.2173C817.913 35.4032 818.882 37.0356 820.818 38.1147C822.063 38.8341 824.72 39.6781 828.787 40.6465L839.329 43.1782C843.95 44.285 847.436 45.7653 849.788 47.6191C853.44 50.4967 855.267 54.661 855.267 60.1118C855.267 65.701 853.122 70.3494 848.833 74.0571C844.572 77.7371 838.541 79.5771 830.738 79.5771C822.769 79.5771 816.502 77.7648 811.937 74.1401C807.371 70.4878 805.088 65.4797 805.088 59.1157H817.291Z" fill="white"/>
</svg>
