<svg width="250" height="34" viewBox="0 0 250 34" fill="none" xmlns="http://www.w3.org/2000/svg">
<path d="M155.321 17.5272C155.313 15.8736 155.796 14.2549 156.709 12.8763C157.622 11.4977 158.924 10.4212 160.45 9.78339C161.975 9.14556 163.656 8.97506 165.279 9.29353C166.901 9.61199 168.393 10.4051 169.564 11.5722C170.736 12.7394 171.534 14.2281 171.858 15.8496C172.183 17.471 172.018 19.1523 171.386 20.6802C170.754 22.2082 169.682 23.5139 168.306 24.432C166.931 25.3501 165.314 25.8392 163.661 25.8372C162.562 25.8589 161.47 25.6589 160.451 25.2493C159.431 24.8398 158.504 24.2289 157.726 23.4533C156.947 22.6777 156.333 21.7533 155.92 20.7351C155.507 19.7169 155.303 18.6259 155.321 17.5272ZM169.701 17.5272C169.656 16.3514 169.266 15.2147 168.58 14.2588C167.893 13.3028 166.941 12.5696 165.842 12.1506C164.742 11.7315 163.544 11.645 162.395 11.9019C161.247 12.1587 160.2 12.7475 159.383 13.5951C158.567 14.4427 158.018 15.5115 157.805 16.6687C157.591 17.8259 157.723 19.0203 158.183 20.1033C158.643 21.1863 159.411 22.1102 160.392 22.7598C161.373 23.4095 162.524 23.7563 163.701 23.7572C164.508 23.7578 165.308 23.5953 166.051 23.2795C166.794 22.9637 167.466 22.5011 168.027 21.9193C168.587 21.3376 169.024 20.6487 169.312 19.894C169.599 19.1393 169.732 18.3343 169.701 17.5272Z" fill="white"/>
<path d="M174.24 9.52722H176.48V12.0272C176.933 11.2336 177.583 10.5712 178.369 10.1049C179.154 9.63853 180.047 9.38434 180.961 9.36721C181.401 9.35945 181.84 9.40308 182.271 9.49722L181.98 11.7972C181.402 11.6192 180.793 11.5648 180.192 11.6378C179.592 11.7107 179.013 11.9092 178.494 12.2205C177.976 12.5318 177.528 12.9488 177.181 13.4445C176.834 13.9401 176.595 14.5032 176.48 15.0972V25.5172H174.24V9.52722Z" fill="white"/>
<path d="M183.611 4.37717C183.618 3.92448 183.805 3.49314 184.128 3.17676C184.452 2.86038 184.888 2.68446 185.341 2.68716C185.768 2.71999 186.167 2.91283 186.458 3.22708C186.749 3.54134 186.91 3.95386 186.91 4.38217C186.91 4.81049 186.749 5.22301 186.458 5.53726C186.167 5.85152 185.768 6.04435 185.341 6.07718C184.886 6.07985 184.449 5.90255 184.125 5.58402C183.801 5.26548 183.616 4.8316 183.611 4.37717ZM184.191 9.52716H186.431V25.5272H184.191V9.52716Z" fill="white"/>
<path d="M188.821 28.8772L190.581 27.3672C191.22 28.2112 192.054 28.8878 193.012 29.3389C193.97 29.79 195.023 30.0021 196.081 29.9572C196.826 30.0031 197.572 29.8912 198.272 29.629C198.971 29.3668 199.607 28.96 200.138 28.4353C200.669 27.9106 201.084 27.2798 201.355 26.5839C201.626 25.8881 201.747 25.143 201.711 24.3972V23.1272C200.996 23.8762 200.132 24.4656 199.173 24.8568C198.215 25.2481 197.185 25.4322 196.151 25.3972C194.005 25.3972 191.947 24.5448 190.43 23.0277C188.913 21.5105 188.061 19.4528 188.061 17.3072C188.061 15.1616 188.913 13.1038 190.43 11.5867C191.947 10.0695 194.005 9.21716 196.151 9.21716C197.185 9.18403 198.214 9.36905 199.172 9.76016C200.13 10.1513 200.995 10.7397 201.711 11.4871V9.48715H204.001V24.4871C204.001 29.3771 200.541 31.9972 196.131 31.9972C192.631 32.0372 190.001 30.5972 188.821 28.8772ZM201.711 20.3972V14.1972C201.133 13.2764 200.323 12.5232 199.364 12.0126C198.404 11.502 197.327 11.2519 196.241 11.2872C194.649 11.2872 193.123 11.9193 191.998 13.0445C190.873 14.1697 190.241 15.6959 190.241 17.2872C190.241 18.8785 190.873 20.4046 191.998 21.5298C193.123 22.655 194.649 23.2871 196.241 23.2871C197.325 23.3245 198.401 23.0774 199.36 22.5705C200.32 22.0635 201.13 21.3142 201.711 20.3972Z" fill="white"/>
<path d="M206.311 4.37717C206.318 3.92448 206.504 3.49314 206.828 3.17676C207.152 2.86038 207.588 2.68446 208.041 2.68716C208.468 2.71999 208.867 2.91283 209.158 3.22708C209.449 3.54134 209.61 3.95386 209.61 4.38217C209.61 4.81049 209.449 5.22301 209.158 5.53726C208.867 5.85152 208.468 6.04435 208.041 6.07718C207.586 6.07985 207.149 5.90255 206.825 5.58402C206.501 5.26548 206.316 4.8316 206.311 4.37717ZM206.891 9.52716H209.131V25.5272H206.891V9.52716Z" fill="white"/>
<path d="M212.711 9.52717H215.001V11.7672C215.589 10.9349 216.377 10.2641 217.293 9.81666C218.209 9.36926 219.222 9.15963 220.241 9.20717C223.721 9.20717 226.241 11.6072 226.241 15.5072V25.5072H224.001V15.8272C224.001 12.9172 222.341 11.2872 219.721 11.2872C218.642 11.2549 217.585 11.5924 216.725 12.2435C215.864 12.8947 215.252 13.8204 214.991 14.8672V25.5172H212.751L212.711 9.52717Z" fill="white"/>
<path d="M228.211 17.5272C228.167 16.4424 228.345 15.3601 228.733 14.3462C229.121 13.3323 229.712 12.408 230.469 11.6296C231.225 10.8512 232.133 10.235 233.135 9.81859C234.138 9.40213 235.215 9.19411 236.3 9.2072C237.336 9.17329 238.368 9.3579 239.327 9.74901C240.287 10.1401 241.153 10.729 241.871 11.4772V9.47722H244.1V25.4772H241.871V23.5272C241.153 24.2755 240.287 24.8643 239.327 25.2554C238.368 25.6465 237.336 25.8311 236.3 25.7972C235.219 25.81 234.147 25.6035 233.147 25.1901C232.148 24.7767 231.243 24.165 230.487 23.392C229.731 22.6191 229.139 21.7009 228.748 20.6928C228.357 19.6848 228.174 18.6079 228.211 17.5272ZM241.871 20.8472V14.1972C241.293 13.2765 240.483 12.5232 239.524 12.0127C238.564 11.5021 237.487 11.2519 236.401 11.2872C234.822 11.3968 233.343 12.1013 232.263 13.2585C231.184 14.4158 230.583 15.9395 230.583 17.5222C230.583 19.1049 231.184 20.6286 232.263 21.7859C233.343 22.9431 234.822 23.6476 236.401 23.7572C237.487 23.7925 238.564 23.5423 239.524 23.0318C240.483 22.5212 241.293 21.768 241.871 20.8472Z" fill="white"/>
<path d="M247.051 2.17719H249.281V25.5172H247.051V2.17719Z" fill="white"/>
<path d="M143.561 4.20718V25.7472H148.641V2.80719L143.561 4.20718Z" fill="white"/>
<path d="M37.9205 21.3372C39.2683 22.0698 40.7674 22.4805 42.3005 22.5372C43.8405 22.5372 44.4705 22.0372 44.4705 21.2072C44.4705 20.3772 43.9705 19.9372 42.1005 19.2972C38.6905 18.1672 37.3905 16.2972 37.4205 14.3872C37.4205 11.3172 40.0305 9.00722 44.0705 9.00722C45.6522 8.99923 47.2161 9.3407 48.6505 10.0072L47.7805 13.5172C46.6874 12.9387 45.4766 12.6172 44.2405 12.5772C43.0005 12.5772 42.3005 13.0772 42.3005 13.8872C42.3005 14.6972 42.9405 15.0872 44.9405 15.7872C48.0505 16.8572 49.3205 18.4572 49.3505 20.7872C49.3505 23.8672 46.9805 26.1072 42.3005 26.1072C40.4726 26.1413 38.6629 25.7403 37.0205 24.9372L37.9205 21.3372Z" fill="white"/>
<path d="M57.3605 4.99719V9.4072H61.0005V13.1272H57.3605V19.0472C57.3605 21.0472 57.8605 21.9172 59.3605 21.9172C59.864 21.9348 60.3676 21.8911 60.8605 21.7872V25.6272C59.7955 25.937 58.6894 26.082 57.5806 26.0572C56.1669 26.1095 54.7888 25.6071 53.7405 24.6572C52.8105 23.6572 52.3406 22.1172 52.3406 19.8072V6.36719L57.3605 4.99719Z" fill="white"/>
<path d="M68.0806 17.5572C68.0806 20.3672 69.2505 22.4771 71.4205 22.4771C73.4205 22.4771 74.6705 20.4772 74.6705 17.4772C74.6705 15.0772 73.7305 12.5972 71.4205 12.5972C69.1105 12.5972 68.0806 15.1072 68.0806 17.5072V17.5572ZM79.9105 17.3472C79.9105 23.3472 75.6705 26.0672 71.2905 26.0672C66.5105 26.0672 62.8406 22.9272 62.8406 17.6472C62.8406 12.3672 66.3106 8.95715 71.5906 8.95715C76.5906 8.95715 79.9105 12.3972 79.9105 17.3472Z" fill="white"/>
<path d="M83.0505 14.7872C83.0505 12.3872 83.0505 10.7872 82.9205 9.40716H87.2606L87.4606 12.4072H87.5906C87.9147 11.2638 88.6607 10.2861 89.6779 9.67172C90.6952 9.0573 91.9077 8.85194 93.0706 9.09717V13.8772C92.6194 13.787 92.1606 13.7401 91.7006 13.7371C90.9068 13.6689 90.1156 13.8937 89.4763 14.3691C88.8369 14.8444 88.3938 15.5374 88.2305 16.3172C88.1594 16.6895 88.126 17.0681 88.1306 17.4472V25.7372H83.0505V14.7872Z" fill="white"/>
<path d="M100.16 9.4072L102.6 17.4572C102.86 18.3972 103.201 19.6272 103.401 20.4572H103.531C103.731 19.5572 104 18.3572 104.23 17.3872L106.23 9.38721H111.641L107.87 20.1272C105.53 26.6372 103.96 29.2172 102.13 30.8472C100.774 32.079 99.0692 32.8614 97.2505 33.0872L96.1505 28.8172C96.9207 28.6307 97.661 28.3379 98.3505 27.9472C99.2101 27.4677 99.9357 26.78 100.461 25.9472C100.611 25.728 100.701 25.4726 100.72 25.2072C100.714 24.9194 100.646 24.6362 100.521 24.3772L94.5205 9.3772L100.16 9.4072Z" fill="white"/>
<path d="M119.5 4.99719V9.4072H123.141V13.1272H119.5V19.0472C119.5 21.0472 120 21.9172 121.5 21.9172C122.004 21.9343 122.508 21.8906 123 21.7872V25.6272C121.939 25.9371 120.836 26.0821 119.73 26.0572C118.316 26.1138 116.936 25.6109 115.891 24.6572C114.951 23.6572 114.48 22.1172 114.48 19.8072V6.36719L119.5 4.99719Z" fill="white"/>
<path d="M135.811 15.7272C135.811 14.4872 135.271 12.4172 132.931 12.4172C130.791 12.4172 129.931 14.4172 129.791 15.7272H135.811ZM129.811 19.1972C129.941 21.3072 132.051 22.3072 134.421 22.3072C135.952 22.3279 137.477 22.0913 138.931 21.6072L139.601 25.0472C137.711 25.7624 135.7 26.1021 133.681 26.0472C128.141 26.0472 124.961 22.8472 124.961 17.7272C124.961 13.5872 127.531 9.0072 133.211 9.0072C138.491 9.0072 140.501 13.1172 140.501 17.1672C140.501 17.8375 140.444 18.5066 140.331 19.1672L129.811 19.1972Z" fill="white"/>
<path d="M29.4606 15.8772C30.7206 8.96722 26.4606 2.78723 19.9206 0.727229C8.21056 -2.92277 -0.079426 7.80722 0.000574019 18.6272C-0.0112374 23.5465 0.661891 28.4435 2.00057 33.1772C1.91057 32.9172 4.21054 31.7072 4.47054 31.5672C5.3734 31.1107 6.30944 30.723 7.27059 30.4073C9.27059 29.7573 11.2706 29.3372 13.2706 28.8772C19.6106 27.4272 26.4206 24.6972 28.8406 18.1172C29.1066 17.389 29.3107 16.6397 29.4506 15.8772" fill="white"/>
</svg>
