<svg width="250" height="35" viewBox="0 0 250 35" fill="none" xmlns="http://www.w3.org/2000/svg">
<path d="M155.32 18.4C155.312 16.7464 155.795 15.1277 156.708 13.7491C157.622 12.3705 158.923 11.294 160.449 10.6562C161.975 10.0184 163.655 9.84786 165.278 10.1663C166.901 10.4848 168.392 11.2779 169.564 12.445C170.735 13.6122 171.533 15.1009 171.858 16.7224C172.182 18.3438 172.018 20.0251 171.385 21.553C170.753 23.081 169.681 24.3867 168.306 25.3048C166.931 26.2229 165.314 26.712 163.66 26.71C162.561 26.7317 161.47 26.5317 160.45 26.1221C159.43 25.7126 158.504 25.1017 157.725 24.3261C156.947 23.5505 156.333 22.6261 155.919 21.6079C155.506 20.5897 155.302 19.4987 155.32 18.4ZM169.7 18.4C169.655 17.2242 169.265 16.0875 168.579 15.1316C167.893 14.1756 166.941 13.4424 165.841 13.0234C164.742 12.6043 163.543 12.5178 162.395 12.7747C161.247 13.0315 160.199 13.6203 159.383 14.4679C158.567 15.3155 158.017 16.3843 157.804 17.5415C157.59 18.6987 157.722 19.8931 158.182 20.9761C158.642 22.0591 159.411 22.983 160.392 23.6326C161.373 24.2823 162.523 24.6291 163.7 24.63C164.508 24.6306 165.307 24.4681 166.05 24.1523C166.794 23.8365 167.466 23.3739 168.026 22.7921C168.586 22.2104 169.023 21.5215 169.311 20.7668C169.599 20.0121 169.731 19.2071 169.7 18.4Z" fill="black"/>
<path d="M174.24 10.4H176.48V12.9C176.932 12.1064 177.583 11.444 178.368 10.9777C179.154 10.5113 180.047 10.2571 180.96 10.24C181.4 10.2322 181.84 10.2759 182.27 10.37L181.98 12.67C181.402 12.492 180.793 12.4376 180.192 12.5106C179.591 12.5835 179.013 12.782 178.494 13.0933C177.975 13.4046 177.528 13.8216 177.181 14.3173C176.834 14.8129 176.595 15.376 176.48 15.97V26.39H174.24V10.4Z" fill="black"/>
<path d="M183.61 5.24997C183.618 4.79728 183.804 4.36594 184.128 4.04956C184.452 3.73318 184.887 3.55727 185.34 3.55997C185.767 3.59279 186.166 3.78563 186.457 4.09988C186.748 4.41414 186.91 4.82666 186.91 5.25497C186.91 5.68329 186.748 6.09581 186.457 6.41006C186.166 6.72432 185.767 6.91716 185.34 6.94998C184.886 6.95265 184.448 6.77535 184.124 6.45682C183.8 6.13829 183.615 5.7044 183.61 5.24997ZM184.19 10.4H186.43V26.4H184.19V10.4Z" fill="black"/>
<path d="M188.82 29.75L190.58 28.24C191.219 29.084 192.053 29.7606 193.011 30.2117C193.969 30.6628 195.022 30.8749 196.08 30.83C196.825 30.8759 197.572 30.764 198.271 30.5018C198.97 30.2396 199.606 29.8328 200.138 29.3081C200.669 28.7834 201.084 28.1526 201.354 27.4568C201.625 26.7609 201.747 26.0158 201.71 25.27V24C200.996 24.749 200.131 25.3384 199.173 25.7296C198.215 26.1209 197.184 26.305 196.15 26.27C194.004 26.27 191.947 25.4176 190.43 23.9005C188.912 22.3833 188.06 20.3256 188.06 18.18C188.06 16.0344 188.912 13.9766 190.43 12.4595C191.947 10.9423 194.004 10.09 196.15 10.09C197.184 10.0568 198.214 10.2419 199.172 10.633C200.13 11.0241 200.995 11.6125 201.71 12.3599V10.3599H204V25.3599C204 30.2499 200.54 32.87 196.13 32.87C192.63 32.91 190 31.47 188.82 29.75ZM201.71 21.27V15.07C201.132 14.1492 200.323 13.396 199.363 12.8854C198.403 12.3748 197.327 12.1247 196.24 12.16C194.649 12.16 193.123 12.7921 191.997 13.9173C190.872 15.0425 190.24 16.5687 190.24 18.16C190.24 19.7513 190.872 21.2774 191.997 22.4026C193.123 23.5278 194.649 24.1599 196.24 24.1599C197.325 24.1973 198.4 23.9502 199.36 23.4433C200.319 22.9363 201.13 22.187 201.71 21.27Z" fill="black"/>
<path d="M206.31 5.24997C206.318 4.79728 206.504 4.36594 206.828 4.04956C207.152 3.73318 207.587 3.55727 208.04 3.55997C208.467 3.59279 208.866 3.78563 209.157 4.09988C209.448 4.41414 209.61 4.82666 209.61 5.25497C209.61 5.68329 209.448 6.09581 209.157 6.41006C208.866 6.72432 208.467 6.91716 208.04 6.94998C207.586 6.95265 207.148 6.77535 206.824 6.45682C206.5 6.13829 206.315 5.7044 206.31 5.24997ZM206.89 10.4H209.13V26.4H206.89V10.4Z" fill="black"/>
<path d="M212.71 10.4H215V12.64C215.588 11.8077 216.377 11.1369 217.292 10.6895C218.208 10.2421 219.222 10.0324 220.24 10.08C223.72 10.08 226.24 12.48 226.24 16.38V26.38H224V16.7C224 13.79 222.34 12.16 219.72 12.16C218.641 12.1277 217.584 12.4652 216.724 13.1163C215.864 13.7675 215.252 14.6932 214.99 15.74V26.39H212.75L212.71 10.4Z" fill="black"/>
<path d="M228.21 18.4C228.167 17.3152 228.344 16.2329 228.732 15.219C229.121 14.2051 229.711 13.2808 230.468 12.5024C231.225 11.7241 232.132 11.1078 233.135 10.6914C234.138 10.2749 235.214 10.0669 236.3 10.08C237.336 10.0461 238.367 10.2307 239.327 10.6218C240.286 11.0129 241.153 11.6018 241.87 12.35V10.35H244.1V26.35H241.87V24.4C241.153 25.1483 240.286 25.7371 239.327 26.1282C238.367 26.5193 237.336 26.7039 236.3 26.67C235.219 26.6828 234.146 26.4763 233.147 26.0629C232.148 25.6495 231.243 25.0378 230.487 24.2648C229.731 23.4919 229.139 22.5737 228.748 21.5656C228.356 20.5576 228.173 19.4807 228.21 18.4ZM241.87 21.72V15.07C241.292 14.1493 240.483 13.396 239.523 12.8855C238.563 12.3749 237.487 12.1248 236.4 12.16C234.821 12.2696 233.343 12.9741 232.263 14.1313C231.183 15.2886 230.583 16.8123 230.583 18.395C230.583 19.9777 231.183 21.5014 232.263 22.6587C233.343 23.8159 234.821 24.5204 236.4 24.63C237.487 24.6653 238.563 24.4151 239.523 23.9046C240.483 23.394 241.292 22.6408 241.87 21.72Z" fill="black"/>
<path d="M247.05 3.04999H249.28V26.39H247.05V3.04999Z" fill="black"/>
<path d="M143.56 5.07999V26.62H148.64V3.67999L143.56 5.07999Z" fill="black"/>
<path d="M37.92 22.21C39.2678 22.9426 40.7669 23.3533 42.3 23.41C43.84 23.41 44.47 22.91 44.47 22.08C44.47 21.25 43.97 20.81 42.1 20.17C38.69 19.04 37.39 17.17 37.42 15.26C37.42 12.19 40.03 9.88002 44.07 9.88002C45.6517 9.87203 47.2156 10.2135 48.65 10.88L47.78 14.39C46.6869 13.8115 45.4761 13.49 44.24 13.45C43 13.45 42.3 13.95 42.3 14.76C42.3 15.57 42.94 15.96 44.94 16.66C48.05 17.73 49.32 19.33 49.35 21.66C49.35 24.74 46.98 26.98 42.3 26.98C40.4721 27.0141 38.6624 26.6131 37.02 25.81L37.92 22.21Z" fill="black"/>
<path d="M57.36 5.87V10.28H61V14H57.36V19.92C57.36 21.92 57.86 22.79 59.36 22.79C59.8634 22.8076 60.3671 22.7639 60.86 22.66V26.5C59.795 26.8098 58.6889 26.9548 57.58 26.93C56.1664 26.9823 54.7882 26.4799 53.74 25.53C52.81 24.53 52.34 22.99 52.34 20.68V7.23999L57.36 5.87Z" fill="black"/>
<path d="M68.08 18.43C68.08 21.24 69.25 23.3499 71.42 23.3499C73.42 23.3499 74.67 21.35 74.67 18.35C74.67 15.95 73.73 13.47 71.42 13.47C69.11 13.47 68.08 15.98 68.08 18.38V18.43ZM79.91 18.22C79.91 24.22 75.67 26.94 71.29 26.94C66.51 26.94 62.84 23.8 62.84 18.52C62.84 13.24 66.31 9.82996 71.59 9.82996C76.59 9.82996 79.91 13.27 79.91 18.22Z" fill="black"/>
<path d="M83.05 15.66C83.05 13.26 83.05 11.66 82.92 10.28H87.26L87.46 13.28H87.59C87.9141 12.1366 88.6601 11.1589 89.6774 10.5445C90.6946 9.9301 91.9072 9.72474 93.07 9.96997V14.75C92.6188 14.6598 92.1601 14.6129 91.7 14.61C90.9063 14.5417 90.115 14.7665 89.4757 15.2419C88.8364 15.7172 88.3932 16.4102 88.23 17.19C88.1589 17.5623 88.1254 17.9409 88.13 18.32V26.61H83.05V15.66Z" fill="black"/>
<path d="M100.16 10.28L102.6 18.33C102.86 19.27 103.2 20.5 103.4 21.33H103.53C103.73 20.43 104 19.23 104.23 18.26L106.23 10.26H111.64L107.87 21C105.53 27.51 103.96 30.09 102.13 31.72C100.773 32.9518 99.0687 33.7342 97.25 33.96L96.15 29.69C96.9202 29.5035 97.6606 29.2107 98.35 28.82C99.2096 28.3405 99.9352 27.6528 100.46 26.82C100.611 26.6008 100.7 26.3454 100.72 26.08C100.714 25.7922 100.646 25.509 100.52 25.25L94.52 10.25L100.16 10.28Z" fill="black"/>
<path d="M119.5 5.87V10.28H123.14V14H119.5V19.92C119.5 21.92 120 22.79 121.5 22.79C122.003 22.8071 122.507 22.7634 123 22.66V26.5C121.938 26.8099 120.836 26.9549 119.73 26.93C118.316 26.9866 116.936 26.4837 115.89 25.53C114.95 24.53 114.48 22.99 114.48 20.68V7.23999L119.5 5.87Z" fill="black"/>
<path d="M135.81 16.6C135.81 15.36 135.27 13.29 132.93 13.29C130.79 13.29 129.93 15.29 129.79 16.6H135.81ZM129.81 20.07C129.94 22.18 132.05 23.18 134.42 23.18C135.952 23.2007 137.476 22.9641 138.93 22.48L139.6 25.92C137.71 26.6352 135.7 26.9749 133.68 26.92C128.14 26.92 124.96 23.72 124.96 18.6C124.96 14.46 127.53 9.88 133.21 9.88C138.49 9.88 140.5 13.99 140.5 18.04C140.501 18.7103 140.444 19.3794 140.33 20.04L129.81 20.07Z" fill="black"/>
<path d="M29.46 16.75C30.72 9.84003 26.46 3.66003 19.92 1.60003C8.21001 -2.04997 -0.0799753 8.68003 2.47029e-05 19.5C-0.0117868 24.4193 0.661341 29.3163 2.00002 34.05C1.91002 33.79 4.21 32.58 4.47 32.44C5.37285 31.9836 6.30889 31.5958 7.27004 31.2801C9.27004 30.6301 11.27 30.21 13.27 29.75C19.61 28.3 26.4201 25.57 28.8401 18.99C29.1061 18.2619 29.3101 17.5125 29.45 16.75" fill="black"/>
</svg>
